<?xml version="1.0" encoding="UTF-8"?>
<svg id="Logo_ThermoSecure" xmlns="http://www.w3.org/2000/svg" viewBox="0 0 1206.1 417.52">
  <defs>
    <style>
      .cls-1 {
        fill: #98b8ad;
      }

      .cls-2 {
        fill: #54565a;
      }
    </style>
  </defs>
  <path id="houseCom" class="cls-1" d="M425.08,354.76c3.16,2,5.61,4.82,7.35,8.46,1.74,3.64,2.61,7.88,2.61,12.72s-.87,9.2-2.61,12.91c-1.74,3.71-4.19,6.58-7.35,8.61-3.16,2.03-6.8,3.05-10.93,3.05-3.8,0-7.09-.82-9.86-2.47-2.77-1.64-4.87-4.04-6.29-7.2v6.38c0,.9-.26,1.63-.77,2.18-.52,.55-1.22,.82-2.13,.82s-1.63-.28-2.18-.82c-.55-.55-.82-1.27-.82-2.18v-63.05c0-.9,.27-1.63,.82-2.18,.55-.55,1.27-.82,2.18-.82s1.61,.27,2.13,.82c.52,.55,.77,1.27,.77,2.18v27.27c1.42-3.16,3.51-5.56,6.29-7.21,2.77-1.64,6.06-2.47,9.86-2.47,4.12,0,7.77,1,10.93,3Zm-.24,35.39c2.74-3.42,4.11-8.15,4.11-14.21s-1.37-10.75-4.11-14.07c-2.74-3.32-6.59-4.98-11.56-4.98s-8.67,1.68-11.31,5.03c-2.64,3.35-3.96,8.09-3.96,14.22s1.34,10.85,4.01,14.17c2.67,3.32,6.46,4.98,11.36,4.98s8.72-1.71,11.46-5.13Zm74.42-38.2c.71,0,1.35,.26,1.93,.77,.58,.52,.87,1.13,.87,1.84,0,.45-.1,.87-.29,1.26l-27.37,60.05c-.52,1.1-1.35,1.64-2.51,1.64-.71,0-1.34-.23-1.89-.68-.55-.45-.82-1.03-.82-1.74,0-.39,.1-.77,.29-1.16l6.87-14.99-19.82-43.13c-.19-.39-.29-.77-.29-1.16,0-.77,.34-1.43,1.02-1.98,.68-.55,1.4-.82,2.18-.82,1.22,0,2.06,.58,2.51,1.74l17.41,39.07,17.41-38.97c.52-1.16,1.35-1.74,2.51-1.74Zm122.81-19.97c.51,.55,.77,1.3,.77,2.27v62.95c0,.97-.26,1.73-.77,2.27-.52,.55-1.26,.82-2.22,.82-.9,0-1.61-.29-2.13-.87-.52-.58-.77-1.32-.77-2.22v-29.4h-43.52v29.4c0,.9-.26,1.64-.77,2.22-.52,.58-1.23,.87-2.13,.87s-1.63-.29-2.18-.87c-.55-.58-.82-1.32-.82-2.22v-62.95c0-.9,.27-1.64,.82-2.22,.55-.58,1.27-.87,2.18-.87s1.61,.29,2.13,.87c.51,.58,.77,1.32,.77,2.22v28.33h43.52v-28.33c0-.9,.26-1.64,.77-2.22,.51-.58,1.22-.87,2.13-.87,.97,0,1.71,.27,2.22,.82Zm39.89,65.52c-3.26-2-5.79-4.83-7.59-8.51-1.81-3.67-2.71-7.96-2.71-12.86s.9-9.19,2.71-12.86c1.8-3.67,4.33-6.51,7.59-8.51,3.25-2,7.04-3,11.36-3s8.03,1,11.31,3c3.29,2,5.82,4.83,7.59,8.51,1.77,3.67,2.66,7.96,2.66,12.86s-.89,9.19-2.66,12.86c-1.77,3.67-4.3,6.51-7.59,8.51-3.29,2-7.06,3-11.31,3s-8.11-1-11.36-3Zm22.77-7.16c2.71-3.29,4.06-8.03,4.06-14.21s-1.37-10.78-4.11-14.17c-2.74-3.38-6.53-5.08-11.36-5.08s-8.7,1.69-11.41,5.08c-2.71,3.38-4.06,8.11-4.06,14.17s1.32,10.93,3.96,14.21c2.64,3.29,6.45,4.93,11.41,4.93s8.8-1.64,11.51-4.93Zm75.09-37.57c.55,.55,.82,1.27,.82,2.18v42.36c0,.9-.27,1.63-.82,2.18-.55,.55-1.27,.82-2.18,.82-.84,0-1.52-.27-2.03-.82-.52-.55-.77-1.27-.77-2.18v-5.9c-1.48,2.97-3.59,5.22-6.33,6.77-2.74,1.55-5.85,2.32-9.33,2.32-5.54,0-9.72-1.53-12.52-4.59-2.8-3.06-4.21-7.59-4.21-13.59v-27.37c0-.9,.27-1.63,.82-2.18s1.27-.82,2.18-.82,1.61,.28,2.13,.82c.52,.55,.77,1.27,.77,2.18v26.98c0,4.58,.92,7.95,2.76,10.11,1.84,2.16,4.72,3.24,8.66,3.24,4.51,0,8.14-1.43,10.88-4.3,2.74-2.87,4.11-6.69,4.11-11.46v-24.56c0-.9,.26-1.63,.77-2.18,.51-.55,1.22-.82,2.13-.82s1.63,.28,2.18,.82Zm38.78,46.61c-2.61-.74-4.92-1.76-6.91-3.05-1.23-.84-2.08-1.56-2.56-2.18-.48-.61-.73-1.31-.73-2.08,0-.64,.21-1.19,.63-1.64,.42-.45,.92-.68,1.5-.68s1.58,.48,3,1.45c1.87,1.23,3.79,2.22,5.75,3,1.97,.77,4.43,1.16,7.4,1.16,3.8,0,6.77-.69,8.9-2.08,2.13-1.39,3.19-3.37,3.19-5.95,0-1.55-.39-2.82-1.16-3.82-.77-1-2.06-1.87-3.87-2.61-1.81-.74-4.38-1.46-7.74-2.18-5.74-1.29-9.82-2.95-12.23-4.98-2.42-2.03-3.63-4.75-3.63-8.17,0-4.13,1.61-7.46,4.83-10.01,3.22-2.55,7.41-3.82,12.57-3.82,2.51,0,4.92,.32,7.21,.97,2.29,.64,4.27,1.58,5.95,2.8,2.26,1.55,3.38,3.06,3.38,4.54,0,.65-.21,1.21-.63,1.69-.42,.48-.92,.73-1.5,.73-.65,0-1.64-.52-3-1.55-1.74-1.22-3.47-2.21-5.17-2.95-1.71-.74-3.88-1.11-6.53-1.11-3.35,0-6.03,.76-8.03,2.27-2,1.52-3,3.56-3,6.14,0,1.48,.34,2.71,1.02,3.67s1.84,1.82,3.48,2.56c1.64,.74,4.01,1.47,7.11,2.18,4.45,1.03,7.87,2.13,10.25,3.29,2.38,1.16,4.09,2.55,5.12,4.16,1.03,1.61,1.55,3.67,1.55,6.19,0,3.93-1.66,7.11-4.98,9.53-3.32,2.42-7.72,3.63-13.2,3.63-2.71,0-5.37-.37-7.98-1.11Zm91.77-8.9c.42,.48,.63,1.05,.63,1.69,0,1.42-1.1,2.8-3.29,4.16-4.64,2.77-9.54,4.16-14.7,4.16-7.16,0-12.8-2.16-16.92-6.48-4.13-4.32-6.19-10.25-6.19-17.79,0-4.84,.92-9.11,2.76-12.81,1.84-3.71,4.42-6.58,7.74-8.61,3.32-2.03,7.14-3.05,11.46-3.05,6.06,0,10.85,1.95,14.36,5.85,3.51,3.9,5.27,9.27,5.27,16.1,0,1.16-.26,2.02-.77,2.56-.52,.55-1.35,.82-2.51,.82h-32.2c.19,5.93,1.74,10.44,4.64,13.54,2.9,3.09,6.99,4.64,12.28,4.64,2.77,0,5.09-.37,6.96-1.11,1.87-.74,3.87-1.72,6-2.95,1.42-.97,2.42-1.45,3-1.45s1.08,.24,1.5,.73Zm-29.35-29.64c-2.71,2.84-4.32,6.8-4.83,11.89h29.88c-.13-5.16-1.42-9.14-3.87-11.94-2.45-2.8-5.9-4.21-10.35-4.21s-8.12,1.42-10.83,4.25Zm70.93,35.54c-4.67-2.8-8.25-6.83-10.73-12.09-2.48-5.25-3.72-11.46-3.72-18.62s1.24-13.35,3.72-18.57c2.48-5.22,6.06-9.24,10.73-12.04,4.67-2.8,10.17-4.21,16.49-4.21,4.32,0,8.43,.72,12.33,2.18,3.9,1.45,7.2,3.53,9.91,6.24,.9,.84,1.35,1.77,1.35,2.8,0,.71-.21,1.32-.63,1.84-.42,.52-.89,.77-1.4,.77-.65,0-1.39-.32-2.22-.97-3.48-2.84-6.64-4.8-9.48-5.9-2.84-1.1-6.16-1.64-9.96-1.64-7.8,0-13.85,2.58-18.13,7.74-4.29,5.16-6.43,12.41-6.43,21.76s2.14,16.7,6.43,21.86c4.29,5.16,10.33,7.74,18.13,7.74,3.8,0,7.12-.55,9.96-1.64,2.84-1.09,6-3.06,9.48-5.9,.97-.64,1.71-.97,2.22-.97s.98,.26,1.4,.77c.42,.52,.63,1.13,.63,1.84,0,1.03-.45,1.97-1.35,2.8-2.71,2.71-6.01,4.79-9.91,6.24-3.9,1.45-8.01,2.18-12.33,2.18-6.32,0-11.81-1.4-16.49-4.21Zm74.17,1.11c-3.26-2-5.79-4.83-7.59-8.51-1.81-3.67-2.71-7.96-2.71-12.86s.9-9.19,2.71-12.86c1.8-3.67,4.33-6.51,7.59-8.51,3.25-2,7.04-3,11.36-3s8.03,1,11.31,3c3.29,2,5.82,4.83,7.59,8.51,1.77,3.67,2.66,7.96,2.66,12.86s-.89,9.19-2.66,12.86c-1.77,3.67-4.3,6.51-7.59,8.51-3.29,2-7.06,3-11.31,3s-8.11-1-11.36-3Zm22.77-7.16c2.71-3.29,4.06-8.03,4.06-14.21s-1.37-10.78-4.11-14.17c-2.74-3.38-6.53-5.08-11.36-5.08s-8.7,1.69-11.41,5.08c-2.71,3.38-4.06,8.11-4.06,14.17s1.32,10.93,3.96,14.21c2.64,3.29,6.45,4.93,11.41,4.93s8.8-1.64,11.51-4.93Zm104.15-20.4v27.37c0,.9-.26,1.63-.77,2.18-.52,.55-1.22,.82-2.13,.82s-1.63-.27-2.18-.82c-.55-.55-.82-1.27-.82-2.18v-26.98c0-4.71-.84-8.11-2.51-10.2-1.68-2.09-4.35-3.14-8.03-3.14-4.19,0-7.53,1.42-10.01,4.25-2.48,2.84-3.72,6.64-3.72,11.41v24.66c0,.9-.26,1.63-.77,2.18-.52,.55-1.22,.82-2.13,.82s-1.63-.27-2.18-.82c-.55-.55-.82-1.27-.82-2.18v-26.98c0-4.71-.84-8.11-2.51-10.2-1.68-2.09-4.35-3.14-8.03-3.14-4.19,0-7.53,1.42-10.01,4.25-2.48,2.84-3.72,6.64-3.72,11.41v24.66c0,.9-.26,1.63-.77,2.18-.52,.55-1.22,.82-2.13,.82s-1.63-.27-2.18-.82c-.55-.55-.82-1.27-.82-2.18v-42.36c0-.97,.27-1.71,.82-2.22,.55-.52,1.27-.77,2.18-.77s1.6,.26,2.08,.77c.48,.52,.73,1.22,.73,2.13v5.8c1.35-2.9,3.3-5.11,5.85-6.62,2.55-1.51,5.5-2.27,8.85-2.27,7.41,0,12.22,3.09,14.41,9.28,1.35-2.9,3.42-5.17,6.19-6.82,2.77-1.64,5.96-2.47,9.57-2.47,10.38,0,15.57,6.06,15.57,18.18Zm41.56-37.82c.27,.23,.4,.56,.4,.99s-.13,.76-.4,.99c-.27,.23-.63,.35-1.09,.35h-6.51v18.5c0,.46-.15,.84-.45,1.12-.3,.28-.68,.43-1.15,.43-.43,0-.8-.14-1.12-.43-.32-.28-.48-.66-.48-1.12v-18.5h-6.45c-1,0-1.49-.44-1.49-1.33s.5-1.33,1.49-1.33h16.16c.46,0,.83,.12,1.09,.35Zm24.69-.08c.27,.29,.4,.66,.4,1.12v19.78c0,.5-.12,.88-.37,1.15s-.59,.4-1.01,.4-.76-.13-1.01-.4-.37-.65-.37-1.15v-15.25l-6.45,12.32c-.32,.71-.82,1.07-1.49,1.07-.64,0-1.12-.36-1.44-1.07l-6.45-12.05v14.98c0,.5-.14,.88-.43,1.15-.29,.27-.64,.4-1.07,.4s-.76-.13-1.01-.4-.37-.65-.37-1.15v-19.78c0-.46,.14-.83,.43-1.12s.66-.43,1.12-.43c.57,0,1.05,.37,1.44,1.12l7.84,14.93,7.73-14.93c.39-.75,.89-1.12,1.49-1.12,.43,0,.77,.14,1.04,.43Z"/>
  <path id="thermoSecure" class="cls-2" d="M162.49,228.27h-29.97c-5.9,0-8.84-2.7-8.84-8.09,0-1.5,.23-3.05,.68-4.65,.45-1.6,.97-2.8,1.57-3.6h85.56c5.89,0,8.84,2.7,8.84,8.09,0,1.5-.23,3.05-.67,4.65-.45,1.6-.98,2.8-1.58,3.6h-37.76v86.46h-17.83v-86.46Zm63.53-16.03c0-2.59,.85-4.57,2.55-5.92,1.7-1.35,3.89-2.02,6.59-2.02,1.4,0,2.85,.15,4.34,.45,1.5,.3,2.7,.7,3.6,1.2v41.36c2.7-3.19,6.19-5.64,10.49-7.34,4.29-1.7,9.09-2.55,14.39-2.55,9.79,0,17.4,2.72,22.85,8.17,5.45,5.45,8.17,12.91,8.17,22.4v46.75h-17.08v-41.66c0-6.79-1.4-11.84-4.2-15.13-2.8-3.3-7.29-4.94-13.48-4.94-6.59,0-11.76,1.85-15.51,5.54-3.75,3.7-5.62,9.04-5.62,16.03v40.16h-17.08v-102.49Zm123.62,104.59c-7.89,0-14.86-1.65-20.9-4.94-6.05-3.3-10.77-7.87-14.16-13.71-3.4-5.84-5.1-12.66-5.1-20.45s1.75-14.86,5.25-20.9c3.5-6.04,8.32-10.79,14.46-14.24,6.14-3.45,13.16-5.17,21.05-5.17,9.59,0,17.35,2.22,23.3,6.67,5.94,4.45,8.91,10.51,8.91,18.2s-3.47,13.64-10.41,17.53c-6.94,3.9-17.96,5.84-33.04,5.84-1.4,0-3.12-.02-5.17-.08-2.05-.05-4.07-.12-6.07-.23,.8,5.2,3.47,9.34,8.02,12.44,4.54,3.1,10.27,4.65,17.16,4.65,7.49,0,14.28-1.75,20.38-5.25l6.29,11.99c-2.2,1.4-4.94,2.7-8.24,3.89-3.3,1.2-6.84,2.12-10.64,2.77-3.8,.65-7.49,.97-11.09,.97Zm.3-66.23c-6.59,0-12.01,2.12-16.26,6.37-4.25,4.25-6.47,9.82-6.67,16.71,1.7,.1,3.5,.15,5.39,.15h7.49c17.28,0,25.92-3.95,25.92-11.84,0-3.5-1.47-6.27-4.42-8.32-2.95-2.05-6.77-3.07-11.46-3.07Zm41.51,15.73c0-9.09,2.82-16.18,8.47-21.28,5.64-5.1,13.46-7.64,23.45-7.64,6.79,0,12.04,1,15.73,3,3.69,2,5.54,4.55,5.54,7.64,0,1.6-.42,3.2-1.27,4.8-.85,1.6-1.67,2.65-2.47,3.15-4.4-2.2-9.34-3.3-14.83-3.3-11.69,0-17.53,6.2-17.53,18.58v43.45h-17.08v-48.4Zm179.96,48.4h-17.08v-42.71c0-6.39-1.45-11.19-4.34-14.38-2.9-3.2-7.09-4.8-12.59-4.8-5.9,0-10.41,1.82-13.56,5.47-3.15,3.65-4.72,8.82-4.72,15.51v40.91h-17.08v-40.91c0-6.69-1.52-11.86-4.57-15.51-3.05-3.64-7.52-5.47-13.41-5.47-5.49,0-9.76,1.65-12.81,4.94-3.05,3.3-4.57,8.09-4.57,14.39v42.55h-17.08v-48.4c0-5.89,1.37-11.01,4.12-15.36,2.75-4.34,6.59-7.69,11.54-10.04,4.94-2.34,10.71-3.52,17.31-3.52,12.98,0,22.43,4.55,28.32,13.64,5.89-9.09,15.18-13.64,27.87-13.64,6.49,0,12.19,1.18,17.08,3.52,4.89,2.35,8.72,5.67,11.46,9.96,2.75,4.3,4.12,9.39,4.12,15.29v48.55Zm16.11-17.38c-3.65-5.99-5.47-12.74-5.47-20.23s1.82-14.24,5.47-20.23c3.64-5.99,8.56-10.74,14.76-14.23,6.19-3.5,13.19-5.25,20.98-5.25s14.81,1.75,21.05,5.25c6.24,3.5,11.16,8.24,14.76,14.23,3.6,5.99,5.39,12.74,5.39,20.23s-1.8,14.23-5.39,20.23c-3.6,5.99-8.52,10.74-14.76,14.24-6.24,3.5-13.26,5.24-21.05,5.24s-14.79-1.75-20.98-5.24c-6.2-3.5-11.12-8.24-14.76-14.24Zm56.11-7.42c2-3.75,3-8.01,3-12.81s-1-9.07-3-12.81-4.77-6.67-8.32-8.77c-3.55-2.1-7.57-3.15-12.06-3.15s-8.52,1.05-12.06,3.15c-3.55,2.1-6.32,5.02-8.32,8.77-2,3.75-3,8.02-3,12.81s1,9.06,3,12.81c2,3.75,4.77,6.67,8.32,8.77,3.55,2.1,7.57,3.15,12.06,3.15s8.52-1.05,12.06-3.15c3.55-2.1,6.32-5.02,8.32-8.77Zm30.12-49.67c0-9.79,3.67-17.4,11.01-22.85,7.34-5.44,17.51-8.17,30.49-8.17,6.89,0,13.54,.73,19.93,2.18,6.39,1.45,11.33,3.32,14.83,5.62,3.6,2.4,5.39,5.1,5.39,8.09,0,1.8-.57,3.72-1.72,5.77-1.15,2.05-2.57,3.62-4.27,4.72-1.9-2.1-4.67-3.97-8.32-5.62-3.65-1.65-7.69-2.94-12.14-3.89-4.45-.95-8.91-1.42-13.41-1.42-15.78,0-23.67,4.8-23.67,14.39,0,3.69,1.5,6.64,4.5,8.84,3,2.2,7.89,3.95,14.68,5.25l16.48,3c11.59,2.1,20.01,5.5,25.25,10.19,5.25,4.7,7.87,11.19,7.87,19.48,0,9.89-3.85,17.63-11.54,23.23-7.69,5.59-18.38,8.39-32.07,8.39-5.19,0-10.69-.55-16.48-1.65-5.8-1.1-11.22-2.57-16.26-4.42-5.05-1.85-9.22-3.92-12.51-6.22l7.79-13.94c3,2,6.62,3.8,10.86,5.39,4.25,1.6,8.72,2.85,13.41,3.75,4.69,.9,9.19,1.35,13.48,1.35,16.18,0,24.27-4.89,24.27-14.68,0-4.09-1.42-7.22-4.27-9.37-2.85-2.15-7.77-3.87-14.76-5.17l-16.48-3c-21.58-3.89-32.37-13.63-32.37-29.22Zm135.61,76.57c-7.89,0-14.86-1.65-20.9-4.94-6.05-3.3-10.77-7.87-14.16-13.71-3.4-5.84-5.1-12.66-5.1-20.45s1.75-14.86,5.25-20.9c3.5-6.04,8.32-10.79,14.46-14.24,6.14-3.45,13.16-5.17,21.05-5.17,9.59,0,17.35,2.22,23.3,6.67,5.94,4.45,8.91,10.51,8.91,18.2s-3.47,13.64-10.41,17.53c-6.94,3.9-17.96,5.84-33.04,5.84-1.4,0-3.12-.02-5.17-.08-2.05-.05-4.07-.12-6.07-.23,.8,5.2,3.47,9.34,8.02,12.44,4.54,3.1,10.27,4.65,17.16,4.65,7.49,0,14.28-1.75,20.38-5.25l6.29,11.99c-2.2,1.4-4.94,2.7-8.24,3.89-3.3,1.2-6.84,2.12-10.64,2.77-3.8,.65-7.49,.97-11.09,.97Zm.3-66.23c-6.59,0-12.01,2.12-16.26,6.37-4.25,4.25-6.47,9.82-6.67,16.71,1.7,.1,3.5,.15,5.39,.15h7.49c17.28,0,25.92-3.95,25.92-11.84,0-3.5-1.47-6.27-4.42-8.32-2.95-2.05-6.77-3.07-11.46-3.07Zm43.53,5.99c3.35-5.99,8.17-10.69,14.46-14.09,6.29-3.39,13.78-5.09,22.48-5.09,4.99,0,9.51,.58,13.56,1.72,4.05,1.15,7.17,2.72,9.37,4.72,2.19,1.9,3.3,4,3.3,6.29,0,1.6-.52,3.22-1.57,4.87-1.05,1.65-2.47,3.17-4.27,4.57-2.5-2.3-5.52-4.07-9.07-5.32-3.55-1.25-7.32-1.87-11.31-1.87-7.29,0-13.14,2.17-17.53,6.52-4.4,4.34-6.59,10.36-6.59,18.06s2.22,13.61,6.67,18.05c4.45,4.45,10.47,6.67,18.06,6.67,6.79,0,12.98-1.7,18.58-5.09l7.19,12.74c-8.29,5-17.53,7.49-27.72,7.49-8.09,0-15.19-1.62-21.28-4.87s-10.84-7.81-14.23-13.71c-3.4-5.89-5.1-12.83-5.1-20.83s1.67-14.83,5.02-20.83Zm142.42,27.72c0,9.99-3.27,17.91-9.81,23.75-6.55,5.84-15.46,8.77-26.75,8.77s-20.08-2.92-26.67-8.77c-6.59-5.84-9.89-13.76-9.89-23.75v-36.86c0-2.6,.85-4.57,2.55-5.92,1.7-1.35,3.89-2.02,6.59-2.02,1.4,0,2.85,.15,4.34,.45,1.5,.3,2.7,.7,3.6,1.2v39.41c0,13.89,6.49,20.83,19.48,20.83s19.48-6.94,19.48-20.83v-33.11c0-2.6,.85-4.57,2.55-5.92,1.7-1.35,3.9-2.02,6.59-2.02,1.4,0,2.85,.15,4.34,.45,1.5,.3,2.7,.7,3.6,1.2v43.16Zm13.63-17.98c0-9.09,2.82-16.18,8.47-21.28,5.64-5.1,13.46-7.64,23.45-7.64,6.79,0,12.04,1,15.73,3,3.69,2,5.54,4.55,5.54,7.64,0,1.6-.42,3.2-1.27,4.8-.85,1.6-1.67,2.65-2.47,3.15-4.4-2.2-9.34-3.3-14.83-3.3-11.69,0-17.53,6.2-17.53,18.58v43.45h-17.08v-48.4Zm93.65,50.5c-7.89,0-14.86-1.65-20.9-4.94-6.05-3.3-10.77-7.87-14.16-13.71-3.4-5.84-5.1-12.66-5.1-20.45s1.75-14.86,5.25-20.9c3.5-6.04,8.32-10.79,14.46-14.24,6.14-3.45,13.16-5.17,21.05-5.17,9.59,0,17.35,2.22,23.3,6.67,5.94,4.45,8.91,10.51,8.91,18.2s-3.47,13.64-10.41,17.53c-6.94,3.9-17.96,5.84-33.04,5.84-1.4,0-3.12-.02-5.17-.08-2.05-.05-4.07-.12-6.07-.23,.8,5.2,3.47,9.34,8.02,12.44,4.54,3.1,10.27,4.65,17.16,4.65,7.49,0,14.28-1.75,20.38-5.25l6.29,11.99c-2.2,1.4-4.94,2.7-8.24,3.89-3.3,1.2-6.84,2.12-10.64,2.77-3.8,.65-7.49,.97-11.09,.97Zm.3-66.23c-6.59,0-12.01,2.12-16.26,6.37-4.25,4.25-6.47,9.82-6.67,16.71,1.7,.1,3.5,.15,5.39,.15h7.49c17.28,0,25.92-3.95,25.92-11.84,0-3.5-1.47-6.27-4.42-8.32-2.95-2.05-6.77-3.07-11.46-3.07Zm52.44-.64h-7.03v-26.04h-8.65c-2.16,0-3.25-1.06-3.25-3.17,0-.51,.09-1.08,.27-1.7s.4-1.11,.66-1.47h26.74c2.11,0,3.17,1,3.17,3.01,0,.46-.08,1.02-.23,1.66-.15,.64-.36,1.2-.62,1.66h-11.05v26.04Zm50.46,0h-7.03l-1.08-20.48c-.77,1.5-1.62,3.18-2.55,5.06-.93,1.88-1.8,3.67-2.63,5.37-.82,1.7-1.47,3.04-1.93,4.02h-5.49c-1.91-3.71-3.39-6.58-4.44-8.62-1.06-2.03-2.02-3.85-2.9-5.45l-1,20.09h-6.95l1.54-28.82c.15-2.27,1.36-3.4,3.63-3.4,1.13,0,2.21,.26,3.24,.77l9.58,18.55c1.54-3.14,2.99-6.08,4.33-8.81,1.34-2.73,2.57-5.36,3.71-7.88,.88-1.85,2.27-2.78,4.17-2.78,.57,0,1.25,.12,2.05,.35,.8,.23,1.45,.5,1.97,.81l1.78,31.22Z"/>
  <path id="iconTS" class="cls-1" d="M447.96,104.51l-6.16,6c-5.22,5.09-13.4,5.15-18.93,.38-24.22-20.89-52.67-30.88-85.95-28.15-27.62,2.26-51.01,13.99-70.88,33.07-1.44,1.38-2.8,2.83-4.23,4.22l-5.32-5.11c-5.98-5.75-5.53-15.32,.77-20.72,8.05-6.91,16.56-12.78,25.52-17.62l-44.72-44.72c-7.8-7.79-20.47-7.79-28.27,0L76.12,165.54v147.99c0,27.64,24.15,50.13,53.83,50.13h203.4c7.92,0,14.34,6.42,14.34,14.34v8.52H129.95c-42.29,0-76.7-32.75-76.7-72.99v-125.13l-23.29,23.29c-6.38,6.38-16.72,6.38-23.1,0l-6.86-6.86L191.38,13.46c17.95-17.95,47.15-17.95,65.1,0l52.41,52.41c12.15-3.56,25-5.5,38.57-5.77,39.75,1.09,73.09,16.06,100.51,44.41Zm-100.81-5.05c-26.86,.76-49.99,10.73-69.08,29.97-5.99,6.04-6.54,12.1-1.85,17.07,4.79,5.07,11.24,4.47,17.51-1.65,32.09-31.3,74.65-31.25,107.01,.1,6.09,5.9,11.98,6.56,16.97,1.89,4.9-4.59,4.59-11.17-1.14-17.03-18.96-19.39-42.05-29.47-69.41-30.35Zm-37.19,54.79c-6.25,6.05-7.04,12.67-2.11,17.64,4.69,4.73,10.89,4.29,17.04-1.44,5.63-5.26,12.01-8.71,19.82-9.24,10.07-.68,18.45,2.84,25.47,9.99,3.59,3.66,7.95,5.29,12.86,3.01,4.11-1.91,6.52-5.27,6.52-10.02,.17-4.14-2.23-6.94-4.92-9.63-20.36-20.37-53.82-20.52-74.67-.32Zm37.26,25.49c-7.76-.02-14.31,6.46-14.32,14.16,0,7.91,6.2,14.12,14.18,14.16,8.05,.04,14.12-5.96,14.15-14.01,.03-7.96-6.16-14.29-14.01-14.31Z"/>
</svg>